<mxfile host="app.diagrams.net" modified="2023-04-26T03:52:05.028Z" agent="Mozilla/5.0 (Windows NT 10.0; Win64; x64) AppleWebKit/537.36 (KHTML, like Gecko) Chrome/112.0.0.0 Safari/537.36" etag="t5tSFaOL-j27dOFyRle9" version="21.2.2" type="github">
  <diagram id="C5RBs43oDa-KdzZeNtuy" name="Page-1">
    <mxGraphModel dx="1050" dy="577" grid="1" gridSize="10" guides="1" tooltips="1" connect="1" arrows="1" fold="1" page="1" pageScale="1" pageWidth="827" pageHeight="1169" math="0" shadow="0">
      <root>
        <mxCell id="WIyWlLk6GJQsqaUBKTNV-0" />
        <mxCell id="WIyWlLk6GJQsqaUBKTNV-1" parent="WIyWlLk6GJQsqaUBKTNV-0" />
        <mxCell id="WIyWlLk6GJQsqaUBKTNV-2" value="" style="rounded=0;html=1;jettySize=auto;orthogonalLoop=1;fontSize=11;endArrow=block;endFill=0;endSize=8;strokeWidth=1;shadow=0;labelBackgroundColor=none;edgeStyle=orthogonalEdgeStyle;" parent="WIyWlLk6GJQsqaUBKTNV-1" source="WIyWlLk6GJQsqaUBKTNV-3" edge="1">
          <mxGeometry relative="1" as="geometry">
            <mxPoint x="220" y="170" as="targetPoint" />
          </mxGeometry>
        </mxCell>
        <mxCell id="WIyWlLk6GJQsqaUBKTNV-3" value="Definir la pregunta de investigación" style="rounded=1;whiteSpace=wrap;html=1;fontSize=12;glass=0;strokeWidth=1;shadow=0;fillColor=#d5e8d4;strokeColor=#82b366;" parent="WIyWlLk6GJQsqaUBKTNV-1" vertex="1">
          <mxGeometry x="160" y="80" width="120" height="40" as="geometry" />
        </mxCell>
        <mxCell id="EGYyjjk6d_iCsyQxBGOS-2" value="" style="edgeStyle=orthogonalEdgeStyle;rounded=0;orthogonalLoop=1;jettySize=auto;html=1;" edge="1" parent="WIyWlLk6GJQsqaUBKTNV-1" source="EGYyjjk6d_iCsyQxBGOS-0" target="EGYyjjk6d_iCsyQxBGOS-1">
          <mxGeometry relative="1" as="geometry" />
        </mxCell>
        <mxCell id="EGYyjjk6d_iCsyQxBGOS-0" value="Realizar búsqueda sistemática de la literatura" style="rounded=1;whiteSpace=wrap;html=1;fillColor=#e1d5e7;strokeColor=#9673a6;" vertex="1" parent="WIyWlLk6GJQsqaUBKTNV-1">
          <mxGeometry x="160" y="170" width="120" height="60" as="geometry" />
        </mxCell>
        <mxCell id="EGYyjjk6d_iCsyQxBGOS-4" value="" style="edgeStyle=orthogonalEdgeStyle;rounded=0;orthogonalLoop=1;jettySize=auto;html=1;" edge="1" parent="WIyWlLk6GJQsqaUBKTNV-1" source="EGYyjjk6d_iCsyQxBGOS-1" target="EGYyjjk6d_iCsyQxBGOS-3">
          <mxGeometry relative="1" as="geometry" />
        </mxCell>
        <mxCell id="EGYyjjk6d_iCsyQxBGOS-1" value="Seleccionar estudios que cumplan con mis criterios de inclusión y exclusión" style="whiteSpace=wrap;html=1;rounded=1;fillColor=#e1d5e7;strokeColor=#9673a6;" vertex="1" parent="WIyWlLk6GJQsqaUBKTNV-1">
          <mxGeometry x="160" y="310" width="120" height="60" as="geometry" />
        </mxCell>
        <mxCell id="EGYyjjk6d_iCsyQxBGOS-6" value="" style="edgeStyle=orthogonalEdgeStyle;rounded=0;orthogonalLoop=1;jettySize=auto;html=1;" edge="1" parent="WIyWlLk6GJQsqaUBKTNV-1" source="EGYyjjk6d_iCsyQxBGOS-3" target="EGYyjjk6d_iCsyQxBGOS-5">
          <mxGeometry relative="1" as="geometry" />
        </mxCell>
        <mxCell id="EGYyjjk6d_iCsyQxBGOS-3" value="Depurar datos relevantes para mi investigación" style="whiteSpace=wrap;html=1;rounded=1;fillColor=#e1d5e7;strokeColor=#9673a6;" vertex="1" parent="WIyWlLk6GJQsqaUBKTNV-1">
          <mxGeometry x="360" y="310" width="120" height="60" as="geometry" />
        </mxCell>
        <mxCell id="EGYyjjk6d_iCsyQxBGOS-8" value="" style="edgeStyle=orthogonalEdgeStyle;rounded=0;orthogonalLoop=1;jettySize=auto;html=1;" edge="1" parent="WIyWlLk6GJQsqaUBKTNV-1" source="EGYyjjk6d_iCsyQxBGOS-5" target="EGYyjjk6d_iCsyQxBGOS-7">
          <mxGeometry relative="1" as="geometry" />
        </mxCell>
        <mxCell id="EGYyjjk6d_iCsyQxBGOS-5" value="Analizar e interpretar los resultados de la revisión" style="whiteSpace=wrap;html=1;rounded=1;fillColor=#e1d5e7;strokeColor=#9673a6;" vertex="1" parent="WIyWlLk6GJQsqaUBKTNV-1">
          <mxGeometry x="360" y="210" width="120" height="60" as="geometry" />
        </mxCell>
        <mxCell id="EGYyjjk6d_iCsyQxBGOS-10" value="" style="edgeStyle=orthogonalEdgeStyle;rounded=0;orthogonalLoop=1;jettySize=auto;html=1;" edge="1" parent="WIyWlLk6GJQsqaUBKTNV-1" source="EGYyjjk6d_iCsyQxBGOS-7" target="EGYyjjk6d_iCsyQxBGOS-9">
          <mxGeometry relative="1" as="geometry" />
        </mxCell>
        <mxCell id="EGYyjjk6d_iCsyQxBGOS-7" value="Presentar los datos" style="whiteSpace=wrap;html=1;rounded=1;fillColor=#e1d5e7;strokeColor=#9673a6;" vertex="1" parent="WIyWlLk6GJQsqaUBKTNV-1">
          <mxGeometry x="360" y="120" width="120" height="60" as="geometry" />
        </mxCell>
        <mxCell id="EGYyjjk6d_iCsyQxBGOS-9" value="" style="shape=waypoint;sketch=0;size=6;pointerEvents=1;points=[];fillColor=default;resizable=0;rotatable=0;perimeter=centerPerimeter;snapToPoint=1;rounded=1;" vertex="1" parent="WIyWlLk6GJQsqaUBKTNV-1">
          <mxGeometry x="530" y="140" width="20" height="20" as="geometry" />
        </mxCell>
        <mxCell id="EGYyjjk6d_iCsyQxBGOS-13" value="" style="edgeStyle=orthogonalEdgeStyle;rounded=0;orthogonalLoop=1;jettySize=auto;html=1;" edge="1" parent="WIyWlLk6GJQsqaUBKTNV-1" source="EGYyjjk6d_iCsyQxBGOS-11" target="EGYyjjk6d_iCsyQxBGOS-12">
          <mxGeometry relative="1" as="geometry" />
        </mxCell>
        <mxCell id="EGYyjjk6d_iCsyQxBGOS-11" value="Diseño del protocolo de revisión." style="rounded=1;whiteSpace=wrap;html=1;fillColor=#dae8fc;strokeColor=#6c8ebf;" vertex="1" parent="WIyWlLk6GJQsqaUBKTNV-1">
          <mxGeometry x="160" y="480" width="120" height="60" as="geometry" />
        </mxCell>
        <mxCell id="EGYyjjk6d_iCsyQxBGOS-15" value="" style="edgeStyle=orthogonalEdgeStyle;rounded=0;orthogonalLoop=1;jettySize=auto;html=1;" edge="1" parent="WIyWlLk6GJQsqaUBKTNV-1" source="EGYyjjk6d_iCsyQxBGOS-12" target="EGYyjjk6d_iCsyQxBGOS-14">
          <mxGeometry relative="1" as="geometry" />
        </mxCell>
        <mxCell id="EGYyjjk6d_iCsyQxBGOS-12" value="Identificación de los estudios." style="whiteSpace=wrap;html=1;rounded=1;fillColor=#d5e8d4;strokeColor=#82b366;" vertex="1" parent="WIyWlLk6GJQsqaUBKTNV-1">
          <mxGeometry x="160" y="620" width="120" height="60" as="geometry" />
        </mxCell>
        <mxCell id="EGYyjjk6d_iCsyQxBGOS-17" value="" style="edgeStyle=orthogonalEdgeStyle;rounded=0;orthogonalLoop=1;jettySize=auto;html=1;" edge="1" parent="WIyWlLk6GJQsqaUBKTNV-1" source="EGYyjjk6d_iCsyQxBGOS-14" target="EGYyjjk6d_iCsyQxBGOS-16">
          <mxGeometry relative="1" as="geometry" />
        </mxCell>
        <mxCell id="EGYyjjk6d_iCsyQxBGOS-14" value="Selección de los estudios." style="whiteSpace=wrap;html=1;rounded=1;fillColor=#d5e8d4;strokeColor=#82b366;" vertex="1" parent="WIyWlLk6GJQsqaUBKTNV-1">
          <mxGeometry x="160" y="760" width="120" height="60" as="geometry" />
        </mxCell>
        <mxCell id="EGYyjjk6d_iCsyQxBGOS-19" value="" style="edgeStyle=orthogonalEdgeStyle;rounded=0;orthogonalLoop=1;jettySize=auto;html=1;" edge="1" parent="WIyWlLk6GJQsqaUBKTNV-1" source="EGYyjjk6d_iCsyQxBGOS-16" target="EGYyjjk6d_iCsyQxBGOS-18">
          <mxGeometry relative="1" as="geometry" />
        </mxCell>
        <mxCell id="EGYyjjk6d_iCsyQxBGOS-16" value="Evaluación de la calidad de los estudios." style="whiteSpace=wrap;html=1;rounded=1;fillColor=#d5e8d4;strokeColor=#82b366;" vertex="1" parent="WIyWlLk6GJQsqaUBKTNV-1">
          <mxGeometry x="160" y="900" width="120" height="60" as="geometry" />
        </mxCell>
        <mxCell id="EGYyjjk6d_iCsyQxBGOS-21" value="" style="edgeStyle=orthogonalEdgeStyle;rounded=0;orthogonalLoop=1;jettySize=auto;html=1;" edge="1" parent="WIyWlLk6GJQsqaUBKTNV-1" source="EGYyjjk6d_iCsyQxBGOS-18" target="EGYyjjk6d_iCsyQxBGOS-20">
          <mxGeometry relative="1" as="geometry" />
        </mxCell>
        <mxCell id="EGYyjjk6d_iCsyQxBGOS-18" value="Extracción de los datos." style="whiteSpace=wrap;html=1;rounded=1;fillColor=#d5e8d4;strokeColor=#82b366;" vertex="1" parent="WIyWlLk6GJQsqaUBKTNV-1">
          <mxGeometry x="360" y="900" width="120" height="60" as="geometry" />
        </mxCell>
        <mxCell id="EGYyjjk6d_iCsyQxBGOS-23" value="" style="edgeStyle=orthogonalEdgeStyle;rounded=0;orthogonalLoop=1;jettySize=auto;html=1;" edge="1" parent="WIyWlLk6GJQsqaUBKTNV-1" source="EGYyjjk6d_iCsyQxBGOS-20" target="EGYyjjk6d_iCsyQxBGOS-22">
          <mxGeometry relative="1" as="geometry" />
        </mxCell>
        <mxCell id="EGYyjjk6d_iCsyQxBGOS-20" value="Análisis de los datos" style="whiteSpace=wrap;html=1;rounded=1;fillColor=#d5e8d4;strokeColor=#82b366;" vertex="1" parent="WIyWlLk6GJQsqaUBKTNV-1">
          <mxGeometry x="360" y="760" width="120" height="60" as="geometry" />
        </mxCell>
        <mxCell id="EGYyjjk6d_iCsyQxBGOS-25" value="" style="edgeStyle=orthogonalEdgeStyle;rounded=0;orthogonalLoop=1;jettySize=auto;html=1;" edge="1" parent="WIyWlLk6GJQsqaUBKTNV-1" source="EGYyjjk6d_iCsyQxBGOS-22" target="EGYyjjk6d_iCsyQxBGOS-24">
          <mxGeometry relative="1" as="geometry" />
        </mxCell>
        <mxCell id="EGYyjjk6d_iCsyQxBGOS-22" value="Interpretación de los resultados" style="whiteSpace=wrap;html=1;rounded=1;fillColor=#d5e8d4;strokeColor=#82b366;" vertex="1" parent="WIyWlLk6GJQsqaUBKTNV-1">
          <mxGeometry x="360" y="620" width="120" height="60" as="geometry" />
        </mxCell>
        <mxCell id="EGYyjjk6d_iCsyQxBGOS-27" value="" style="edgeStyle=orthogonalEdgeStyle;rounded=0;orthogonalLoop=1;jettySize=auto;html=1;" edge="1" parent="WIyWlLk6GJQsqaUBKTNV-1" source="EGYyjjk6d_iCsyQxBGOS-24" target="EGYyjjk6d_iCsyQxBGOS-26">
          <mxGeometry relative="1" as="geometry" />
        </mxCell>
        <mxCell id="EGYyjjk6d_iCsyQxBGOS-24" value="Informe de la revisión." style="whiteSpace=wrap;html=1;rounded=1;fillColor=#d5e8d4;strokeColor=#82b366;" vertex="1" parent="WIyWlLk6GJQsqaUBKTNV-1">
          <mxGeometry x="360" y="480" width="120" height="60" as="geometry" />
        </mxCell>
        <mxCell id="EGYyjjk6d_iCsyQxBGOS-26" value="" style="shape=waypoint;sketch=0;size=6;pointerEvents=1;points=[];fillColor=#d5e8d4;resizable=0;rotatable=0;perimeter=centerPerimeter;snapToPoint=1;strokeColor=#82b366;rounded=1;" vertex="1" parent="WIyWlLk6GJQsqaUBKTNV-1">
          <mxGeometry x="610" y="500" width="20" height="20" as="geometry" />
        </mxCell>
      </root>
    </mxGraphModel>
  </diagram>
</mxfile>
